<svg xmlns="http://www.w3.org/2000/svg" viewBox="0 0 1586 1000">
  <rect width="100%" height="100%" fill="#E9F4FF"/>
  <g transform="translate(700 420)">
    <ellipse cx="140" cy="80" rx="260" ry="110" fill="#C9DFF2"/>
  </g>
  <g transform="translate(793 360)">
    <polygon points="-40,-20 40,-20 -10,60 80,20 -20,160 -10,80 -80,100" fill="#FFD54A" stroke="#FF8F00" stroke-width="5"/>
  </g>
  <g fill="#0288D1" transform="translate(640 680)">
    <path d="M40 0c8 18 24 40 24 40s16-22 24-40c6-14-12-30-24-16-12-14-30 2-24 16z"/>
    <path d="M160 0c8 18 24 40 24 40s16-22 24-40c6-14-12-30-24-16-12-14-30 2-24 16z" transform="translate(120,20)"/>
  </g>
</svg>