<svg xmlns="http://www.w3.org/2000/svg" viewBox="0 0 1586 1000">
  <rect width="100%" height="100%" fill="#E8F3FF"/>
  <g transform="translate(793 420)">
    <ellipse cx="-120" cy="60" rx="160" ry="80" fill="#CDD9E6"/>
    <ellipse cx="80" cy="40" rx="220" ry="110" fill="#B0C2D9"/>
  </g>
  <g fill="#4FC3F7" transform="translate(620 640)">
    <path d="M40 0c8 18 24 40 24 40s16-22 24-40c6-14-12-30-24-16-12-14-30 2-24 16z"/>
    <path d="M220 0c8 18 24 40 24 40s16-22 24-40c6-14-12-30-24-16-12-14-30 2-24 16z" transform="translate(0,40)"/>
    <path d="M400 0c8 18 24 40 24 40s16-22 24-40c6-14-12-30-24-16-12-14-30 2-24 16z" transform="translate(0,80)"/>
  </g>
</svg>